<svg width="18" height="18" viewBox="0 0 18 18" fill="none" xmlns="http://www.w3.org/2000/svg">
<path fill-rule="evenodd" clip-rule="evenodd" d="M4.34071 10.5147C4.37354 10.5258 4.40668 10.5336 4.43978 10.5384C4.47589 10.6233 4.52253 10.733 4.57695 10.8614C4.70976 11.1746 4.8887 11.5982 5.07341 12.0401C5.45009 12.9414 5.83005 13.8705 5.91397 14.1364C6.01785 14.4651 6.12766 14.6886 6.24753 14.8412C6.30951 14.9201 6.3812 14.989 6.46508 15.0412C6.50731 15.0674 6.55191 15.089 6.59847 15.105C6.60052 15.1057 6.60257 15.1064 6.60462 15.1071C6.84463 15.1977 7.06345 15.16 7.20046 15.1138C7.27376 15.0891 7.33307 15.0593 7.37511 15.0351C7.39654 15.0228 7.41465 15.0113 7.4291 15.0016L7.4325 14.9993L9.55217 13.6774L12.0006 15.5545C12.0367 15.5823 12.0761 15.6055 12.1178 15.6237C12.412 15.7521 12.6968 15.7968 12.9647 15.7602C13.2322 15.7237 13.4446 15.6113 13.6027 15.4848C13.7575 15.361 13.8624 15.2223 13.9278 15.1192C13.9612 15.0665 13.9862 15.02 14.0039 14.9843C14.0128 14.9664 14.0199 14.951 14.0254 14.9386L14.0325 14.9222L14.0352 14.9158L14.0363 14.913L14.0368 14.9118L14.0373 14.9106C14.0501 14.8784 14.06 14.8452 14.0667 14.8112L16.3019 3.54205C16.3091 3.50601 16.3127 3.46936 16.3127 3.43262C16.3127 3.10261 16.1883 2.78881 15.8959 2.59839C15.646 2.43564 15.3677 2.42863 15.1917 2.44199C15.0019 2.45639 14.8267 2.50324 14.709 2.54068C14.6478 2.56016 14.5965 2.57896 14.5595 2.5933C14.5409 2.60051 14.5257 2.60669 14.5143 2.61141L14.5058 2.615L1.9705 7.53241L1.96888 7.53299C1.96089 7.5359 1.95063 7.53972 1.93844 7.54447C1.91417 7.55392 1.88165 7.56724 1.84366 7.58445C1.76957 7.61803 1.66564 7.67051 1.55898 7.74355C1.38859 7.86023 0.996722 8.17981 1.06271 8.70728C1.11535 9.12809 1.40363 9.38653 1.57928 9.5108C1.67572 9.57904 1.76734 9.62785 1.83407 9.65961C1.86503 9.67435 1.9293 9.70046 1.95719 9.71179L1.96423 9.71465L4.34071 10.5147ZM14.9445 3.6509L14.9427 3.65166C14.9365 3.65437 14.9302 3.65697 14.9239 3.65946L2.37336 8.58284C2.36681 8.58541 2.36021 8.58785 2.35356 8.59018L2.34658 8.59283C2.33855 8.59595 2.32503 8.60144 2.30806 8.60913C2.29844 8.61349 2.2884 8.61825 2.27817 8.62335C2.29223 8.63127 2.30569 8.63815 2.31765 8.64385C2.32913 8.64931 2.33789 8.65305 2.34269 8.65502L4.69966 9.44851C4.7428 9.46304 4.78302 9.48228 4.81993 9.50548L12.6025 4.94961L12.6098 4.9453C12.6155 4.94195 12.6229 4.93765 12.6318 4.9326C12.6495 4.92259 12.6739 4.90926 12.7028 4.89453C12.7568 4.86704 12.8433 4.82623 12.9406 4.79614C13.0084 4.77519 13.2083 4.71617 13.4243 4.78548C13.5577 4.82825 13.6958 4.92021 13.7856 5.07599C13.8302 5.15338 13.8539 5.23112 13.8655 5.30229C13.896 5.4144 13.8912 5.5251 13.8673 5.62068C13.8157 5.82656 13.671 5.98715 13.5394 6.10999C13.4267 6.2153 11.9676 7.62219 10.5283 9.01101C9.81047 9.7036 9.1 10.3893 8.56897 10.902L8.22019 11.2387L12.6241 14.615C12.7251 14.6512 12.7848 14.6493 12.8125 14.6456C12.8454 14.6411 12.8723 14.6284 12.8998 14.6064C12.9306 14.5818 12.9575 14.5485 12.9776 14.5168L12.9785 14.5155L15.1463 3.58576C15.1141 3.5935 15.0816 3.6027 15.0503 3.61268C15.0148 3.62399 14.9855 3.63475 14.9661 3.64228C14.9564 3.646 14.9495 3.64883 14.9458 3.65039L14.9445 3.6509ZM8.59853 12.9463L7.71992 12.2727L7.50702 13.627L8.59853 12.9463ZM6.91391 10.9361L7.78764 10.0926C8.3187 9.57991 9.02924 8.89409 9.7471 8.20143L10.4765 7.49775L5.58646 10.3603L5.6127 10.4222C5.74597 10.7365 5.92571 11.162 6.1114 11.6063C6.25024 11.9385 6.39544 12.2883 6.52768 12.6122L6.73995 11.2619C6.76042 11.1317 6.82402 11.019 6.91391 10.9361Z" fill="white"/>
</svg>
