<svg width="18" height="18" viewBox="0 0 18 18" fill="none" xmlns="http://www.w3.org/2000/svg">
<path d="M6.66449 5.37739C6.80171 5.38107 6.95384 5.38848 7.09858 5.70977C7.19456 5.92366 7.35625 6.31741 7.48796 6.63816C7.59044 6.88775 7.67478 7.09313 7.69589 7.13517C7.74411 7.23117 7.7738 7.34194 7.71073 7.47117C7.70329 7.48641 7.69627 7.50099 7.68951 7.51502C7.63891 7.62002 7.60291 7.69474 7.51783 7.79245C7.48284 7.83261 7.4464 7.87664 7.41009 7.92052C7.34624 7.99768 7.2828 8.07435 7.22841 8.12851C7.13196 8.22445 7.03175 8.32793 7.14305 8.51993C7.25441 8.71193 7.64397 9.3434 8.21904 9.85301C8.83728 10.4034 9.37489 10.6354 9.64665 10.7526C9.69941 10.7754 9.74215 10.7938 9.77352 10.8094C9.96648 10.9054 10.0815 10.8907 10.1928 10.7614C10.3041 10.6322 10.6751 10.2001 10.805 10.0081C10.9311 9.81611 11.0609 9.84565 11.2391 9.9121C11.4171 9.97855 12.3669 10.4438 12.5598 10.5398C12.5979 10.5588 12.6336 10.5759 12.6667 10.5918C12.8009 10.6562 12.8921 10.6999 12.9308 10.7651C12.9791 10.8464 12.9791 11.2304 12.8195 11.6809C12.6563 12.1314 11.8698 12.5635 11.5136 12.5967C11.4799 12.5999 11.4463 12.604 11.4118 12.6081C11.0854 12.6476 10.671 12.6977 9.19475 12.1167C7.37571 11.4013 6.17495 9.62655 5.93218 9.26773C5.91301 9.2394 5.89982 9.2199 5.89276 9.21044L5.88865 9.20494C5.7782 9.05715 5.10249 8.153 5.10249 7.22014C5.10249 6.32762 5.54216 5.86295 5.7427 5.651C5.75541 5.63757 5.76716 5.62515 5.77777 5.61371C5.95583 5.42171 6.16364 5.37371 6.29347 5.37371C6.42337 5.37371 6.5532 5.37371 6.66449 5.37739Z" fill="white"/>
<path fill-rule="evenodd" clip-rule="evenodd" d="M1.63817 15.9986C1.5768 16.2213 1.77967 16.4269 2.00321 16.3685L5.45871 15.4659C6.54948 16.0568 7.77753 16.3706 9.02788 16.3706H9.03158C13.1461 16.3706 16.5 13.0361 16.5 8.93719C16.5 6.95051 15.7246 5.08195 14.3147 3.67868C12.9049 2.27547 11.0313 1.5 9.03151 1.5C4.91709 1.5 1.56311 4.83454 1.56311 8.93352C1.56264 10.2375 1.90683 11.5187 2.56112 12.6484L1.63817 15.9986ZM3.64572 12.9472C3.72583 12.6564 3.68581 12.3456 3.53464 12.0845C2.97952 11.1261 2.68771 10.0391 2.68811 8.93352C2.68811 5.46119 5.53306 2.625 9.03151 2.625C10.7339 2.625 12.3222 3.28274 13.5211 4.47604C14.7187 5.66802 15.375 7.24958 15.375 8.93719C15.375 12.4094 12.5301 15.2456 9.03158 15.2456H9.02788C7.96549 15.2456 6.9215 14.9789 5.99453 14.4767C5.74363 14.3408 5.45048 14.3054 5.1744 14.3775L3.1026 14.9186L3.64572 12.9472Z" fill="white"/>
</svg>
