<svg width="63" height="19" viewBox="0 0 63 19" fill="none" xmlns="http://www.w3.org/2000/svg">
<path d="M2.71996 18.1278C2.31463 18.2985 1.9093 18.2985 1.50396 18.1278C1.09863 17.9571 0.81063 17.6691 0.639963 17.2638C0.469296 16.8585 0.469296 16.4531 0.639963 16.0478C0.81063 15.6425 1.09863 15.3545 1.50396 15.1838C1.6533 15.1198 1.82396 15.0558 2.01596 14.9918C2.0373 14.9918 2.09063 14.9811 2.17596 14.9598C2.28263 14.9171 2.3573 14.8851 2.39996 14.8638L2.62396 14.7678C2.94396 14.5118 3.2213 13.9571 3.45596 13.1038C3.71196 12.2505 3.88263 11.1411 3.96796 9.7758C4.0533 8.41047 4.03196 6.18114 3.90396 3.0878C3.90396 2.9598 3.91463 2.82114 3.93596 2.6718C3.9573 2.2878 4.10663 1.95714 4.38396 1.6798C4.6613 1.40247 5.00263 1.24247 5.40796 1.1998C6.9653 1.0718 9.9413 1.0078 14.336 1.0078C14.4853 1.0078 14.6346 1.02914 14.784 1.0718C15.232 1.09314 15.6053 1.2638 15.904 1.5838C16.2026 1.9038 16.3413 2.2878 16.32 2.7358C16.2986 3.3758 16.224 4.26114 16.096 5.3918C15.9466 6.52247 15.8613 7.32247 15.84 7.7918C15.7333 9.5198 15.68 12.3998 15.68 16.4318C15.68 16.8798 15.52 17.2638 15.2 17.5838C14.9013 17.8825 14.528 18.0318 14.08 18.0318C13.632 18.0318 13.248 17.8825 12.928 17.5838C12.6293 17.2638 12.48 16.8798 12.48 16.4318C12.48 12.3358 12.5333 9.3918 12.64 7.5998C12.6826 7.06647 12.768 6.20247 12.896 5.0078L12.992 4.2078C10.368 4.18647 8.42663 4.21847 7.16796 4.3038C7.2533 6.56514 7.24263 8.45314 7.13596 9.9678C7.05063 11.5465 6.85863 12.8798 6.55996 13.9678C6.1333 15.4825 5.50396 16.5811 4.67196 17.2638C4.33063 17.5198 3.91463 17.7331 3.42396 17.9038C3.40263 17.9038 3.2533 17.9465 2.97596 18.0318C2.8693 18.0745 2.78396 18.1065 2.71996 18.1278Z" fill="white"/>
<path d="M25.1315 17.9358C24.0435 17.7225 23.0835 17.3171 22.2515 16.7198C21.4195 16.1011 20.7688 15.3865 20.2995 14.5758C19.8515 13.7651 19.5208 12.9118 19.3075 12.0158C19.1155 11.1198 19.0515 10.2025 19.1155 9.2638C19.1795 8.0478 19.4248 6.88514 19.8515 5.7758C20.2995 4.64514 20.9821 3.64247 21.8995 2.7678C22.8381 1.89314 23.9261 1.37047 25.1635 1.1998C25.3555 1.15714 25.5688 1.1358 25.8035 1.1358C26.1661 0.92247 26.5501 0.847803 26.9555 0.911802L27.1475 0.943801C27.2541 0.943801 27.3821 0.954469 27.5315 0.975803C27.6808 0.975803 27.8408 0.997136 28.0115 1.0398C28.2035 1.06114 28.3955 1.09314 28.5875 1.1358C28.7795 1.17847 28.9501 1.2318 29.0995 1.2958C30.3581 1.8078 31.3821 2.6398 32.1715 3.7918C32.9821 4.9438 33.5155 6.17047 33.7715 7.4718C34.0275 8.77314 34.0701 10.0638 33.8995 11.3438C33.5795 13.5198 32.7155 15.2371 31.3075 16.4958C29.6435 17.9678 27.5848 18.4478 25.1315 17.9358ZM25.7715 14.7998C27.2008 15.0985 28.3421 14.8638 29.1955 14.0958C30.0061 13.3705 30.5181 12.3038 30.7315 10.8958C30.9235 9.46647 30.7635 8.12247 30.2515 6.8638C29.7395 5.60514 29.0035 4.7518 28.0435 4.3038C27.7235 4.51714 27.3821 4.60247 27.0195 4.5598C26.9768 4.5598 26.6461 4.4958 26.0275 4.3678C25.8355 4.34647 25.6968 4.3358 25.6115 4.3358C24.7581 4.4638 24.0115 5.0078 23.3715 5.9678C22.7315 6.90647 22.3795 8.05847 22.3155 9.4238C22.2301 10.8105 22.4968 11.9945 23.1155 12.9758C23.7128 13.9571 24.5981 14.5651 25.7715 14.7998Z" fill="white"/>
<path d="M37.4342 16.7198C37.2635 15.3545 37.1569 13.8825 37.1142 12.3038C37.0715 10.7038 37.0715 8.8478 37.1142 6.7358C37.1569 4.6238 37.1782 3.29047 37.1782 2.7358C37.1782 2.52247 37.2209 2.3198 37.3062 2.1278C37.3915 1.78647 37.5729 1.50914 37.8502 1.2958C38.1489 1.06114 38.4795 0.943801 38.8422 0.943801H45.3062C45.7542 0.943801 46.1275 1.1038 46.4262 1.4238C46.7462 1.72247 46.9062 2.0958 46.9062 2.5438C46.9062 2.9918 46.7462 3.3758 46.4262 3.6958C46.1275 3.99447 45.7542 4.1438 45.3062 4.1438H40.3782C40.3782 4.48514 40.3569 5.43447 40.3142 6.9918C40.2929 8.54914 40.2822 9.63714 40.2822 10.2558C40.2822 10.8531 40.3035 11.7918 40.3462 13.0718C40.4102 14.3305 40.5062 15.3971 40.6342 16.2718C40.6769 16.7198 40.5595 17.1251 40.2822 17.4878C40.0262 17.8291 39.6742 18.0211 39.2262 18.0638C38.7995 18.1278 38.4049 18.0318 38.0422 17.7758C37.7009 17.4985 37.4982 17.1465 37.4342 16.7198Z" fill="white"/>
<path d="M53.5377 17.9358C52.4497 17.7225 51.4897 17.3171 50.6577 16.7198C49.8257 16.1011 49.175 15.3865 48.7057 14.5758C48.2577 13.7651 47.927 12.9118 47.7137 12.0158C47.5217 11.1198 47.4577 10.2025 47.5217 9.2638C47.5857 8.0478 47.831 6.88514 48.2577 5.7758C48.7057 4.64514 49.3884 3.64247 50.3057 2.7678C51.2444 1.89314 52.3324 1.37047 53.5697 1.1998C53.7617 1.15714 53.975 1.1358 54.2097 1.1358C54.5724 0.92247 54.9564 0.847803 55.3617 0.911802L55.5537 0.943801C55.6604 0.943801 55.7884 0.954469 55.9377 0.975803C56.087 0.975803 56.247 0.997136 56.4177 1.0398C56.6097 1.06114 56.8017 1.09314 56.9937 1.1358C57.1857 1.17847 57.3564 1.2318 57.5057 1.2958C58.7644 1.8078 59.7884 2.6398 60.5777 3.7918C61.3884 4.9438 61.9217 6.17047 62.1777 7.4718C62.4337 8.77314 62.4764 10.0638 62.3057 11.3438C61.9857 13.5198 61.1217 15.2371 59.7137 16.4958C58.0497 17.9678 55.991 18.4478 53.5377 17.9358ZM54.1777 14.7998C55.607 15.0985 56.7484 14.8638 57.6017 14.0958C58.4124 13.3705 58.9244 12.3038 59.1377 10.8958C59.3297 9.46647 59.1697 8.12247 58.6577 6.8638C58.1457 5.60514 57.4097 4.7518 56.4497 4.3038C56.1297 4.51714 55.7884 4.60247 55.4257 4.5598C55.383 4.5598 55.0524 4.4958 54.4337 4.3678C54.2417 4.34647 54.103 4.3358 54.0177 4.3358C53.1644 4.4638 52.4177 5.0078 51.7777 5.9678C51.1377 6.90647 50.7857 8.05847 50.7217 9.4238C50.6364 10.8105 50.903 11.9945 51.5217 12.9758C52.119 13.9571 53.0044 14.5651 54.1777 14.7998Z" fill="white"/>
</svg>
