<svg width="36" height="34" viewBox="0 0 36 34" fill="none" xmlns="http://www.w3.org/2000/svg">
<path d="M16.8124 0.763401C17.6104 -0.164566 19.0472 -0.164565 19.8452 0.763402L25.6324 7.49314C25.8352 7.72899 26.0902 7.91428 26.3772 8.03428L34.5659 11.4586C35.695 11.9308 36.139 13.2973 35.5031 14.343L30.8911 21.9265C30.7294 22.1923 30.632 22.4921 30.6066 22.8021L29.8803 31.6482C29.7801 32.868 28.6177 33.7125 27.4267 33.4308L18.7891 31.388C18.4864 31.3164 18.1712 31.3164 17.8685 31.388L9.23093 33.4308C8.03989 33.7125 6.87746 32.868 6.77731 31.6482L6.05104 22.8021C6.02559 22.4921 5.92818 22.1923 5.76655 21.9265L1.15451 14.343C0.518559 13.2973 0.962569 11.9308 2.09171 11.4586L10.2804 8.03428C10.5674 7.91428 10.8224 7.72899 11.0252 7.49314L16.8124 0.763401Z" fill="#783BFF"/>
</svg>
