<svg width="39" height="38" viewBox="0 0 39 38" fill="none" xmlns="http://www.w3.org/2000/svg">
<path d="M17.5719 1.99399C18.1117 0.0360279 20.8883 0.0360284 21.4281 1.994L24.172 11.9473C24.4201 12.8473 25.2578 13.4559 26.1904 13.4138L36.5045 12.9476C38.5334 12.8559 39.3914 15.4966 37.6961 16.615L29.0778 22.3004C28.2985 22.8145 27.9786 23.7992 28.3068 24.6731L31.9374 34.3384C32.6516 36.2397 30.4053 37.8717 28.8177 36.605L20.7474 30.1654C20.0177 29.5831 18.9823 29.5831 18.2526 30.1654L10.1823 36.605C8.59475 37.8717 6.34841 36.2397 7.0626 34.3384L10.6932 24.6731C11.0214 23.7992 10.7015 22.8144 9.92221 22.3004L1.30394 16.615C-0.391405 15.4966 0.466619 12.8559 2.49555 12.9476L12.8097 13.4138C13.7422 13.4559 14.5799 12.8473 14.828 11.9473L17.5719 1.99399Z" fill="#FFA83B"/>
</svg>
